<svg xmlns="http://www.w3.org/2000/svg" viewBox="0 0 16 16">
  <rect x="2" y="2" width="12" height="8"></rect>
  <path d="M16 2a2 2 0 0 0-2-2H2a2 2 0 0 0-2 2v8a2 2 0 0 0 2 2h9.586a1 1 0 0 1 .707.293l2.853 2.853a.5.5 0 0 0 .854-.353zM3.5 3h9a.5.5 0 0 1 0 1h-9a.5.5 0 0 1 0-1m0 2.5h9a.5.5 0 0 1 0 1h-9a.5.5 0 0 1 0-1m0 2.5h5a.5.5 0 0 1 0 1h-5a.5.5 0 0 1 0-1"/>
  <style>
    path { fill: #000; }
    rect { fill: #fff; }
    @media (prefers-color-scheme: dark) {
      path { fill: #fff; }
      rect { fill: #000; }
    }
  </style>
</svg>
