<svg xmlns="http://www.w3.org/2000/svg" viewBox="0 0 512 512">
  <rect width="512" height="512" rx="15%" fill="#b72024"/>
  <path d="M377.004 237.113c-3.065-1.005-6.03-1.932-8.881-2.837-21.788-6.85-34.924-10.983-34.924-27.939 0-13.756 10.606-23.727 25.238-23.727 11.204 0 19.557 4.647 27.048 15.132.699.976 2.017 1.325 3.108.748l21.98-11.218a2.368 2.368 0 0 0 1.226-1.476 2.419 2.419 0 0 0-.207-1.91c-11.774-20.926-28.758-31.096-51.922-31.096-35.244 0-58.038 21.325-58.038 54.324 0 33.74 22.038 47.396 62.685 60.774 23.556 7.855 33.969 12.017 33.969 28.773 0 18.838-16.985 32.38-40.177 31.588-24.29-.82-31.652-13.698-40.91-34.788-15.66-35.722-33.477-77.424-33.648-77.83-17.89-41.267-53.341-64.915-97.28-64.915C128.224 150.716 81 197.948 81 256.014c0 58.038 47.225 105.27 105.27 105.27 31.66 0 61.338-14.033 81.408-38.516a2.44 2.44 0 0 0 .364-2.523l-13.279-30.626a2.5 2.5 0 0 0-2.16-1.46 2.41 2.41 0 0 0-2.251 1.31c-12.53 23.941-37.084 38.809-64.096 38.809-39.835 0-72.235-32.408-72.235-72.264 0-39.856 32.408-72.263 72.242-72.263 29 0 55.571 17.212 66.127 42.892l32.821 74.865 3.785 8.41c14.839 34.567 36.641 50.055 70.788 50.183 40.604 0 71.216-26.905 71.216-62.57 0-35.836-19.807-49.264-53.996-60.418z" fill="#fff"/>
</svg>
